<?xml version="1.0" encoding="UTF-8" standalone="no"?>
<!--

    Copyright (c) 2012-2017 Red Hat, Inc.
    All rights reserved. This program and the accompanying materials
    are made available under the terms of the Eclipse Public License v1.0
    which accompanies this distribution, and is available at
    http://www.eclipse.org/legal/epl-v10.html

    Contributors:
      Red Hat, Inc. - initial API and implementation

-->

<svg
   xmlns="http://www.w3.org/2000/svg"
   width="32px"
   height="32px"
   viewBox="6 6 20 20">
    <g
     id="g297"
     transform="rotate(-89.862171,15.998626,15.999955)">
        <path
         class="blueColored"
         d="m 16.92255,10.37409 0.0203,8.437476 1.874995,-0.0045 -2.805729,2.819247 -2.819258,-2.805726 1.874995,-0.0045 -0.01804,-7.499989 c -2e-6,0 -0.0057,-0.937478 0.935269,-0.939747 z"
         id="path293"
         style="clip-rule:evenodd;fill:#3193d4;fill-rule:evenodd"/>
    </g>
      <path
       id="rect309"
       transform="matrix(0.625,0,0,0.625,6,6)"
       style="fill:#808080;fill-opacity:1;stroke-width:0.75590551;stroke-miterlimit:4;stroke-dasharray:none;paint-order:markers stroke fill"
       d="m 19,3.5 v 1 h 1.5 c 1,0 1,1 1,1 v 5 l 1,1 v -6 c 0,0 0,-1 1,-1 H 25 v -1 h -2 c -1,0 -1,1 -1,1 0,0 0,-1 -1,-1 z"/>
      <path
       id="rect309-3"
       style="fill:#808080;fill-opacity:1;stroke-width:0.47244096;stroke-miterlimit:4;stroke-dasharray:none;paint-order:markers stroke fill"
       d="m 21.624991,23.8125 v -0.625 H 20.6875 c -0.625,0 -0.625,-0.625 -0.625,-0.625 v -3.75 l -0.625,0.625 v 3.125 c 0,0 0,0.625 -0.625,0.625 h -0.937491 v 0.625 H 19.125 c 0.625,0 0.625,-0.625 0.625,-0.625 0,0 0,0.625 0.625,0.625 z"/>
</svg>