<?xml version="1.0" encoding="UTF-8" standalone="no"?>
<!--

    Copyright (c) 2012-2017 Red Hat, Inc.
    All rights reserved. This program and the accompanying materials
    are made available under the terms of the Eclipse Public License v1.0
    which accompanies this distribution, and is available at
    http://www.eclipse.org/legal/epl-v10.html

    Contributors:
      Red Hat, Inc. - initial API and implementation

-->

<svg
   xmlns:dc="http://purl.org/dc/elements/1.1/"
   xmlns:cc="http://creativecommons.org/ns#"
   xmlns:rdf="http://www.w3.org/1999/02/22-rdf-syntax-ns#"
   xmlns:svg="http://www.w3.org/2000/svg"
   xmlns="http://www.w3.org/2000/svg"
   xmlns:sodipodi="http://sodipodi.sourceforge.net/DTD/sodipodi-0.dtd"
   xmlns:inkscape="http://www.inkscape.org/namespaces/inkscape"
   version="1.1"
   x="0px"
   y="0px"
   width="32px"
   height="32px"
   viewBox="6 6 20 20"
   xml:space="preserve"
   id="svg299"
   sodipodi:docname="runtolocation.svg"
   inkscape:version="0.92.2 (unknown)"><metadata
     id="metadata305"><rdf:RDF><cc:Work
         rdf:about=""><dc:format>image/svg+xml</dc:format><dc:type
           rdf:resource="http://purl.org/dc/dcmitype/StillImage" /><dc:title></dc:title></cc:Work></rdf:RDF></metadata><defs
     id="defs303" /><sodipodi:namedview
     pagecolor="#ffffff"
     bordercolor="#666666"
     borderopacity="1"
     objecttolerance="10"
     gridtolerance="10"
     guidetolerance="10"
     inkscape:pageopacity="0"
     inkscape:pageshadow="2"
     inkscape:window-width="1615"
     inkscape:window-height="1026"
     id="namedview301"
     showgrid="true"
     inkscape:snap-others="false"
     inkscape:snap-smooth-nodes="true"
     inkscape:snap-nodes="true"
     inkscape:object-paths="true"
     inkscape:snap-intersection-paths="true"
     inkscape:snap-midpoints="true"
     inkscape:measure-start="22,11"
     inkscape:measure-end="22,4"
     inkscape:zoom="16"
     inkscape:cx="24.599568"
     inkscape:cy="15.477365"
     inkscape:window-x="65"
     inkscape:window-y="24"
     inkscape:window-maximized="1"
     inkscape:current-layer="svg299"><inkscape:grid
       type="xygrid"
       id="grid307"
       empspacing="1"
       originx="1.7347235e-17"
       spacingx="0.3125"
       originy="1.7347235e-17"
       spacingy="0.3125" /></sodipodi:namedview><g
     id="g297"
     transform="rotate(-89.862171,15.998626,15.999955)"><path
       class="blueColored"
       d="m 16.92255,10.37409 0.0203,8.437476 1.874995,-0.0045 -2.805729,2.819247 -2.819258,-2.805726 1.874995,-0.0045 -0.02029,-8.437475 z"
       id="path293"
       inkscape:connector-curvature="0"
       style="clip-rule:evenodd;fill:#3193d4;fill-rule:evenodd"
       sodipodi:nodetypes="cccccccc" /></g><path
     id="rect309"
     transform="matrix(0.625,0,0,0.625,6,6)"
     style="fill:#808080;fill-opacity:1;stroke-width:0.75590551;stroke-miterlimit:4;stroke-dasharray:none;paint-order:markers stroke fill"
     d="m 19,3.5 v 1 h 1.5 c 1,0 1,1 1,1 v 5 l 1,1 v -6 c 0,0 0,-1 1,-1 H 25 v -1 h -2 c -1,0 -1,1 -1,1 0,0 0,-1 -1,-1 z"
     inkscape:connector-curvature="0"
     sodipodi:nodetypes="ccsccccsccscsc" /><path
     id="rect309-3"
     style="fill:#808080;fill-opacity:1;stroke-width:0.47244096;stroke-miterlimit:4;stroke-dasharray:none;paint-order:markers stroke fill"
     d="m 21.624991,23.8125 v -0.625 H 20.6875 c -0.625,0 -0.625,-0.625 -0.625,-0.625 v -3.75 l -0.625,0.625 v 3.125 c 0,0 0,0.625 -0.625,0.625 h -0.937491 v 0.625 H 19.125 c 0.625,0 0.625,-0.625 0.625,-0.625 0,0 0,0.625 0.625,0.625 z"
     inkscape:connector-curvature="0"
     sodipodi:nodetypes="ccsccccsccscsc" /></svg>